<?xml version="1.0" standalone="no"?>
<svg version="1.0" xmlns="http://www.w3.org/2000/svg"
 width="500.000000pt" height="500.000000pt" viewBox="0 0 500.000000 500.000000"
 preserveAspectRatio="xMidYMid meet">

<g transform="translate(0.000000,500.000000) scale(0.100000,-0.100000)"
fill="#000000" stroke="none">
<path d="M2214 4589 c-48 -14 -94 -71 -94 -117 0 -68 45 -106 141 -117 85 -10
98 -14 110 -36 26 -50 -67 -83 -160 -56 l-51 15 -9 -32 c-10 -40 -8 -43 37
-56 113 -31 245 10 270 83 15 49 4 94 -29 119 -14 11 -63 25 -109 34 -89 15
-110 26 -110 55 0 41 97 65 163 40 22 -9 25 -6 35 25 10 33 9 36 -14 45 -31
11 -138 10 -180 -2z"/>
<path d="M2994 4541 c-17 -11 -36 -34 -43 -51 -9 -27 -15 -32 -36 -28 -14 3
-25 1 -25 -6 0 -6 -3 -21 -6 -33 -5 -19 -2 -23 15 -23 26 0 26 -4 -4 -120 -14
-52 -25 -100 -25 -107 0 -14 71 -36 80 -25 4 4 16 50 28 102 29 122 30 123 71
109 37 -13 37 -14 45 27 7 30 5 32 -28 38 -27 5 -36 12 -36 26 0 28 34 44 62
29 18 -10 24 -8 39 12 25 33 24 37 -17 54 -48 20 -82 19 -120 -4z"/>
<path d="M2583 4489 c-114 -56 -118 -214 -8 -277 33 -19 52 -22 102 -19 93 5
151 55 160 139 15 127 -132 218 -254 157z m146 -86 c18 -21 22 -34 17 -61 -11
-73 -81 -105 -135 -63 -19 15 -24 28 -24 64 0 25 6 53 13 63 35 41 91 39 129
-3z"/>
<path d="M3186 4426 c-11 -28 -18 -33 -38 -29 -19 4 -27 -1 -36 -21 -11 -24
-10 -27 13 -36 25 -10 25 -10 9 -47 -45 -106 -53 -148 -34 -183 15 -28 73 -60
109 -60 27 0 31 3 31 28 0 22 -7 30 -30 39 -36 14 -37 28 -8 111 24 67 30 70
89 47 12 -5 19 2 27 24 12 33 11 35 -32 45 -22 5 -27 11 -22 26 3 11 9 29 12
40 5 16 -1 23 -30 35 -46 19 -44 20 -60 -19z"/>
<path d="M3353 4160 l-40 -161 27 -19 c35 -25 51 -25 81 -2 67 52 129 91 129
81 0 -6 -9 -52 -21 -101 -12 -49 -19 -91 -17 -92 1 -1 17 -12 34 -24 l30 -21
57 42 c31 23 90 67 132 97 41 30 75 57 75 60 0 3 -14 13 -30 22 l-31 18 -89
-65 c-50 -36 -90 -59 -90 -52 0 7 11 51 25 98 13 46 25 89 25 96 0 6 -13 21
-29 32 l-29 21 -91 -65 c-50 -35 -91 -59 -91 -53 0 7 12 54 27 106 l26 94 -29
23 c-16 14 -32 24 -35 25 -4 0 -24 -72 -46 -160z"/>
<path d="M1540 4270 c-12 -12 -25 -33 -31 -48 -9 -24 -12 -25 -20 -10 -9 16
-12 16 -44 1 -19 -9 -35 -20 -35 -24 0 -7 146 -257 156 -268 1 -2 18 7 36 20
18 12 34 23 36 25 2 1 -17 35 -43 77 -53 88 -56 118 -16 156 l30 28 -19 31
c-23 38 -24 38 -50 12z"/>
<path d="M1898 4199 c-54 -31 -36 -99 26 -99 36 0 46 13 46 55 0 25 -24 55
-43 55 -7 0 -20 -5 -29 -11z"/>
<path d="M1255 4072 c-22 -11 -53 -34 -70 -51 -24 -26 -30 -41 -33 -94 -4 -72
16 -114 70 -148 48 -29 132 -23 187 15 41 29 88 106 76 126 -3 5 -19 10 -34
10 -22 0 -31 -7 -41 -31 -16 -38 -49 -60 -90 -61 -60 -2 -53 16 39 91 52 43
87 79 84 86 -8 22 -78 66 -114 71 -22 3 -49 -2 -74 -14z m90 -79 c0 -16 -106
-104 -117 -97 -18 11 -7 65 17 90 20 20 34 25 63 22 21 -2 37 -8 37 -15z"/>
<path d="M3851 3909 c-6 -18 -11 -33 -11 -34 0 -2 11 -6 24 -9 26 -6 86 -69
86 -89 0 -7 -6 -21 -13 -31 -12 -16 -18 -12 -68 38 -49 49 -61 56 -96 56 -42
0 -75 -25 -88 -68 -15 -49 57 -142 110 -142 11 0 15 -6 11 -17 -3 -11 4 -30
17 -47 l23 -29 92 89 c84 82 92 92 92 127 0 63 -40 118 -120 166 -45 27 -46
27 -59 -10z m-1 -175 l34 -37 -22 -18 c-28 -22 -58 -14 -85 23 -15 21 -17 30
-8 47 17 31 42 26 81 -15z"/>
<path d="M992 3814 c-46 -23 -82 -74 -82 -113 0 -27 -3 -31 -19 -26 -14 4 -25
-3 -42 -26 l-22 -32 42 -35 c24 -19 56 -45 71 -56 16 -12 72 -54 125 -95 l96
-75 24 30 c14 16 24 32 25 36 0 4 -25 26 -55 49 l-55 41 42 22 c101 52 105
194 7 261 -49 34 -112 42 -157 19z m98 -89 c56 -29 67 -90 24 -130 -43 -40
-112 -27 -140 26 -20 40 -18 57 15 90 33 33 58 36 101 14z"/>
<path d="M4120 3652 c-16 -8 -220 -140 -233 -152 -12 -11 33 -81 46 -73 7 4
23 14 37 23 14 9 43 29 66 43 51 34 88 34 118 2 28 -30 40 -31 71 -6 l24 18
-27 25 c-15 14 -35 28 -46 32 -14 5 -16 9 -7 20 9 10 7 21 -6 45 -19 33 -20
33 -43 23z"/>
<path d="M771 3467 c-85 -44 -119 -171 -67 -248 34 -49 86 -73 148 -67 64 7
96 31 131 99 33 63 32 107 -4 165 -24 40 -85 73 -135 74 -17 0 -50 -10 -73
-23z m115 -79 c24 -11 44 -48 44 -79 0 -11 -14 -34 -30 -51 -26 -25 -36 -29
-63 -24 -35 7 -87 56 -87 84 0 29 38 80 62 84 26 4 43 1 74 -14z"/>
<path d="M4084 3356 c-43 -42 -44 -45 -44 -108 0 -54 5 -72 29 -110 38 -59 69
-78 88 -52 17 23 16 39 -3 55 -44 36 -57 114 -25 143 18 17 20 16 26 -6 4 -13
20 -50 35 -83 15 -33 30 -70 34 -83 14 -44 88 -12 117 51 33 74 18 148 -43
202 -35 33 -43 35 -104 35 -65 0 -68 -1 -110 -44z m175 -52 c23 -19 31 -34 31
-58 0 -39 -24 -76 -39 -61 -15 15 -60 133 -53 139 11 12 31 5 61 -20z"/>
<path d="M481 3167 c-24 -62 -32 -57 189 -127 l205 -66 12 31 c6 16 12 35 12
42 1 7 -48 27 -111 47 -62 20 -155 49 -206 65 l-93 29 -8 -21z"/>
<path d="M630 2963 c-57 -10 -110 -89 -110 -163 0 -89 50 -146 137 -157 105
-12 175 56 181 176 4 82 -10 109 -50 91 -25 -12 -26 -15 -21 -71 5 -54 4 -60
-25 -88 -40 -41 -56 -40 -48 2 15 72 28 188 22 202 -5 15 -33 17 -86 8z m25
-140 c-9 -89 -12 -95 -36 -82 -60 32 -34 143 35 148 4 1 5 -29 1 -66z"/>
<path d="M4346 2874 c-99 -13 -181 -26 -183 -27 -3 -3 21 -206 32 -274 5 -30
9 -33 42 -33 l36 0 -7 48 c-3 26 -9 77 -12 113 -6 63 -6 66 17 72 13 4 36 7
50 7 26 0 26 -1 33 -92 3 -50 8 -93 9 -95 2 -2 18 0 35 3 36 7 38 16 22 124
-5 35 -8 65 -7 66 1 1 23 4 48 8 l46 7 12 -106 13 -105 35 0 35 0 -6 63 c-24
232 -27 247 -50 246 -11 -1 -102 -12 -200 -25z"/>
<path d="M490 2603 c1 -55 33 -78 205 -138 16 -6 -3 -18 -87 -58 l-108 -50 0
-39 c0 -55 -12 -58 238 58 l72 34 0 48 0 48 -72 26 c-40 15 -109 40 -153 57
-94 36 -95 36 -95 14z"/>
<path d="M4195 2469 c-9 -51 1 -59 75 -59 110 0 150 -24 150 -89 0 -60 -57
-72 -217 -44 l-33 5 0 -45 c0 -45 1 -46 38 -53 20 -4 78 -8 129 -8 83 -1 93 1
117 23 46 43 53 106 21 184 -5 12 -2 17 8 17 8 0 17 10 21 23 14 53 15 52
-131 66 -76 7 -145 15 -155 17 -12 4 -18 -5 -23 -37z"/>
<path d="M643 2258 c-17 -6 -46 -26 -64 -44 -29 -30 -34 -42 -37 -97 -3 -54 0
-67 24 -103 47 -72 135 -94 214 -54 64 33 93 115 70 200 -11 41 -53 100 -71
100 -4 0 -14 -11 -23 -25 -16 -24 -15 -26 4 -47 28 -30 37 -85 19 -117 -29
-51 -42 -33 -68 87 -13 61 -27 112 -30 111 -3 -1 -20 -6 -38 -11z m30 -159
c10 -40 15 -74 13 -77 -3 -2 -18 1 -34 7 -30 13 -52 47 -52 81 0 20 32 60 48
60 5 0 16 -32 25 -71z"/>
<path d="M4067 2155 c-9 -7 -30 -39 -47 -71 -53 -106 -37 -199 43 -241 18 -9
91 -35 163 -58 l131 -42 12 36 c9 30 8 38 -5 48 -14 10 -13 13 5 23 25 13 47
53 56 102 9 50 -23 121 -67 148 -44 26 -116 27 -161 0 -42 -25 -72 -88 -70
-147 1 -30 -3 -43 -12 -43 -18 0 -55 48 -55 72 0 27 28 89 51 114 21 23 18 43
-9 61 -13 8 -22 8 -35 -2z m242 -130 c16 -8 31 -22 35 -30 22 -59 -17 -128
-72 -128 -39 0 -82 37 -82 70 0 35 28 83 53 93 31 12 34 12 66 -5z"/>
<path d="M675 1867 c-69 -47 -87 -86 -82 -172 4 -57 13 -88 51 -167 25 -54 48
-98 51 -98 17 0 365 172 365 180 -1 3 -26 54 -58 115 -75 144 -112 175 -212
175 -60 0 -73 -4 -115 -33z m193 -75 c13 -8 37 -42 53 -75 25 -48 28 -62 17
-69 -17 -11 -195 -97 -208 -100 -18 -5 -72 129 -65 160 9 42 46 81 90 97 43
15 76 11 113 -13z"/>
<path d="M4007 1745 c-9 -19 -13 -36 -9 -39 22 -13 192 -99 229 -116 l43 -19
19 37 19 38 -131 67 c-73 37 -137 67 -143 67 -6 0 -18 -16 -27 -35z"/>
<path d="M3940 1618 l-23 -31 25 -21 c14 -12 51 -40 82 -63 48 -37 56 -47 56
-76 0 -22 -8 -41 -23 -55 -39 -37 -42 -35 -212 83 -11 7 -19 4 -30 -10 -38
-49 -38 -49 33 -101 92 -68 122 -83 160 -84 68 0 132 62 132 128 0 25 3 29 19
25 13 -3 25 5 40 26 l22 30 -78 58 c-87 64 -171 123 -176 123 -2 0 -14 -14
-27 -32z"/>
<path d="M4352 1604 c-24 -17 -30 -62 -10 -82 22 -22 57 -14 73 17 17 33 12
57 -16 71 -23 13 -21 13 -47 -6z"/>
<path d="M1142 1425 c-10 -21 -9 -28 8 -45 11 -11 20 -26 20 -33 0 -6 -25 -37
-56 -67 l-56 -55 -27 33 -26 33 -24 -25 -24 -26 21 -23 c28 -30 28 -37 -3 -62
l-26 -20 30 -35 29 -35 26 25 c23 21 30 23 47 12 17 -11 25 -11 45 3 29 18 29
19 7 40 -15 15 -12 21 45 75 93 88 100 126 37 194 -39 42 -58 45 -73 11z"/>
<path d="M3688 1296 c-62 -27 -132 -124 -113 -156 3 -5 19 -10 34 -10 22 0 29
7 40 35 7 21 24 41 41 50 29 15 82 20 93 9 3 -3 -35 -42 -84 -87 l-89 -82 36
-32 c68 -60 154 -54 218 17 41 46 50 74 44 135 -12 104 -122 165 -220 121z
m152 -167 c0 -46 -62 -85 -107 -68 l-28 11 59 55 c62 57 76 58 76 2z"/>
<path d="M1283 1244 c-9 -4 -8 -14 1 -42 12 -33 16 -37 42 -34 45 5 84 -30 84
-74 0 -20 -5 -44 -10 -55 -15 -28 -65 -51 -95 -43 -29 7 -65 48 -65 74 0 20
-19 30 -56 30 -48 0 -24 -81 40 -138 74 -65 158 -65 224 -1 63 62 65 148 5
220 -42 50 -126 81 -170 63z"/>
<path d="M3380 1070 c-42 -22 -85 -67 -94 -97 -6 -18 -2 -22 23 -28 26 -6 35
-2 61 29 35 39 85 55 119 36 12 -6 19 -15 17 -19 -3 -4 -40 -28 -83 -54 -126
-74 -121 -68 -89 -110 87 -113 286 -44 286 100 0 100 -59 163 -151 163 -33 -1
-68 -8 -89 -20z m164 -170 c-12 -50 -80 -78 -124 -50 -19 12 -7 24 63 66 56
33 71 29 61 -16z"/>
<path d="M1572 1063 c-6 -10 -28 -53 -51 -96 -55 -103 -56 -145 -3 -197 25
-25 56 -43 92 -54 80 -24 90 -22 90 18 0 32 -2 34 -42 40 -53 9 -88 40 -88 79
0 16 3 27 8 25 136 -66 169 -72 207 -33 65 65 -15 188 -113 173 -24 -3 -28 -1
-25 13 3 12 -5 23 -26 33 -37 20 -38 20 -49 -1z m138 -113 c24 -24 24 -30 6
-55 -13 -18 -15 -18 -62 2 -55 24 -62 34 -39 57 23 22 71 20 95 -4z"/>
<path d="M3163 955 c-18 -8 -33 -18 -33 -22 0 -5 14 -44 30 -86 17 -43 30 -85
30 -94 0 -9 -16 -30 -35 -48 -32 -31 -34 -36 -24 -64 14 -40 30 -39 68 4 25
29 32 32 39 19 8 -14 12 -14 46 0 30 12 37 20 32 33 -42 110 -111 273 -115
273 -3 -1 -21 -7 -38 -15z"/>
<path d="M1883 903 c-26 -5 -27 -9 -9 -43 12 -21 20 -24 58 -21 36 2 51 -3 76
-24 27 -22 44 -65 27 -65 -2 0 -53 14 -111 31 -120 35 -124 34 -124 -39 0 -78
44 -133 123 -153 92 -23 171 21 198 110 17 58 4 106 -41 151 -51 51 -116 69
-197 53z m85 -188 c34 -10 62 -21 62 -26 0 -15 -45 -39 -74 -39 -17 0 -40 10
-53 22 -25 23 -33 74 -10 65 7 -3 41 -13 75 -22z"/>
<path d="M2782 838 c-18 -18 -14 -63 8 -83 39 -35 101 17 77 66 -14 27 -64 38
-85 17z"/>
<path d="M2201 783 c17 -32 37 -64 42 -70 6 -9 6 -13 -1 -13 -24 0 -72 -54
-82 -91 -22 -81 15 -148 97 -177 21 -7 82 -16 135 -19 96 -6 97 -6 102 18 6
27 35 373 32 376 -1 1 -22 3 -46 5 l-45 3 -3 -53 -3 -53 -46 3 c-45 3 -48 5
-83 63 -36 59 -38 60 -84 63 l-48 3 33 -58z m206 -151 c7 -5 9 -29 6 -75 l-6
-67 -46 0 c-55 0 -91 17 -107 49 -14 28 -3 68 23 89 18 13 111 16 130 4z"/>
</g>
</svg>
